<?xml version="1.0" standalone="no"?>
<!DOCTYPE svg PUBLIC "-//W3C//DTD SVG 20010904//EN"
 "http://www.w3.org/TR/2001/REC-SVG-20010904/DTD/svg10.dtd">
<svg version="1.0" xmlns="http://www.w3.org/2000/svg"
 width="500.000000pt" height="500.000000pt" viewBox="0 0 500.000000 500.000000"
 preserveAspectRatio="xMidYMid meet">

<g transform="translate(0.000000,500.000000) scale(0.100000,-0.100000)"
fill="#000000" stroke="none">
<path d="M2073 4077 c-40 -29 -126 -90 -192 -137 -66 -46 -117 -89 -114 -94 4
-5 2 -6 -4 -3 -10 6 -66 -26 -58 -35 3 -2 -1 -5 -7 -5 -20 0 -165 -100 -172
-119 -6 -15 6 -94 59 -379 14 -71 34 -184 46 -250 11 -66 36 -203 54 -305 56
-311 59 -364 42 -810 -8 -217 -11 -399 -7 -404 11 -11 283 -26 294 -16 5 5 11
50 14 100 3 63 9 93 18 97 7 3 44 -16 82 -41 74 -49 169 -93 267 -122 47 -15
94 -19 220 -19 138 0 171 3 240 23 180 52 362 175 479 324 107 135 151 250
176 455 28 222 -61 486 -225 674 -107 123 -279 227 -446 271 -66 17 -112 22
-219 22 -163 0 -258 -22 -397 -89 -51 -25 -95 -45 -99 -45 -4 0 -4 84 -1 188
12 324 26 645 33 710 3 34 2 62 -2 62 -5 -1 -42 -24 -81 -53z m-438 -439 c2
-13 18 -84 35 -158 108 -474 111 -506 56 -498 -18 3 -25 20 -48 123 -16 66
-42 196 -58 289 -17 93 -35 187 -39 209 -8 34 -7 39 12 47 33 13 36 12 42 -12z
m1167 -708 c69 -26 123 -63 188 -130 103 -106 140 -206 140 -381 0 -175 -51
-294 -174 -406 -256 -234 -668 -148 -821 172 -139 290 -1 642 295 751 56 20
198 32 268 21 29 -4 76 -16 104 -27z"/>
</g>
</svg>
